<svg xmlns="http://www.w3.org/2000/svg" width="257" height="241" version="1">
	<g fill-rule="evenodd">
		<path d="M122.333 135.712c-7.841 18.71-32.049 44.275-35.304 55.593-9.772 33.971 35.701 56.045 57.534 23.987 44.648 20.422 50.667-12.477 51.234-15.835 2.056-12.184 5.779-34.65-50.668-72.358 44.426 24.812 46.724 37.342 73.36 34.278 21.683-2.517 42.23-25.86 10.313-55.615 25.333-45.626-27.63-54.545-46.709-44.094-7.266 3.98-16.89 8.223-45.75 44.094 3.355-16.808 34.607-40.369 36.734-60.486 2.008-18.997-20.698-54.879-56.397-19.422-63.508-29.345-77.034 45.877-8.368 85.347-14.296-2.18-42.539-30.49-67.486-28.024-24.947 2.467-44.304 26.53-10.33 55.636-17.402 37.477 12.967 53.007 36.275 46.63 23.307-6.378 43.49-30.728 55.562-49.73z" fill="#279716" stroke="#279716" stroke-width="16"/>
		<path d="M122.989 135.712c-7.842 18.71-32.049 44.275-35.304 55.593-9.773 33.971 35.701 56.045 57.534 23.987 44.648 20.422 50.667-12.477 51.234-15.835 2.056-12.184 5.779-34.65-50.668-72.358 44.426 24.812 46.724 37.342 73.36 34.278 21.683-2.517 42.229-25.86 10.313-55.615 25.333-45.626-27.63-54.545-46.709-44.094-7.266 3.98-16.89 8.223-45.75 44.094 3.355-16.808 34.607-40.369 36.734-60.486 2.008-18.997-20.699-54.879-56.397-19.422-63.508-29.345-77.034 45.877-8.368 85.347-14.296-2.18-42.539-30.49-67.486-28.024-24.947 2.467-44.304 26.53-10.33 55.636-17.402 37.477 12.967 53.007 36.275 46.63 23.307-6.378 43.49-30.728 55.562-49.73z" fill="#fff"/>
	</g>
</svg>